<?xml version="1.0" encoding="UTF-8"?>
<svg width="20px" height="16px" viewBox="0 0 20 16" version="1.1" xmlns="http://www.w3.org/2000/svg" xmlns:xlink="http://www.w3.org/1999/xlink">
    <!-- Generator: Sketch 63.1 (92452) - https://sketch.com -->
    <title>ic-envelope</title>
    <desc>Created with Sketch.</desc>
    <g id="Page-1" stroke="none" stroke-width="1" fill="none" fill-rule="evenodd">
        <g id="LD_v4" transform="translate(-145.000000, -1632.000000)" fill="#80756B" fill-rule="nonzero">
            <g id="Group-9" transform="translate(0.000000, 1395.000000)">
                <g id="Group-4" transform="translate(145.000000, 70.000000)">
                    <g id="ic-envelope" transform="translate(0.000000, 167.000000)">
                        <path d="M18,0 C19.1045695,0 20,0.8954305 20,2 L20,14 C20,15.1045695 19.1045695,16 18,16 L2,16 C0.8954305,16 0,15.1045695 0,14 L0,2 C0,0.9 0.9,0 2,0 L18,0 Z M13.63,9.1 L20,14 L20,12 L14.88,8.1 L20,4 L20,2 L10,10 L0,2 L0,4 L5.12,8.1 L0,12 L0,14 L6.37,9.1 L10,12 L13.63,9.1 Z" id="Shape"></path>
                    </g>
                </g>
            </g>
        </g>
    </g>
</svg>