<?xml version="1.0" encoding="UTF-8"?>
<svg width="20px" height="20px" viewBox="0 0 20 20" version="1.1" xmlns="http://www.w3.org/2000/svg" xmlns:xlink="http://www.w3.org/1999/xlink">
    <!-- Generator: Sketch 63.1 (92452) - https://sketch.com -->
    <title>ic-phone</title>
    <desc>Created with Sketch.</desc>
    <g id="Page-1" stroke="none" stroke-width="1" fill="none" fill-rule="evenodd">
        <g id="LD_v4" transform="translate(-145.000000, -1590.000000)" fill="#80756B" fill-rule="nonzero">
            <g id="Group-9" transform="translate(0.000000, 1395.000000)">
                <g id="Group-4" transform="translate(145.000000, 70.000000)">
                    <g id="ic-phone" transform="translate(0.000000, 125.000000)">
                        <path d="M20,18.35 L20,19 C20,19.5522847 19.5522847,20 19,20 L17,20 C7.61115925,20 0,12.3888407 0,3 L0,1 C0,0.44771525 0.44771525,0 1,0 L5,0 C5.55228475,0 6,0.44771525 6,1 L6,5 C6,5.56 5.69,6.31 5.3,6.7 L3.16,8.84 C4.68,12.44 7.56,15.32 11.16,16.84 L13.28,14.72 C13.68,14.32 14.43,14.01 14.98,14.01 L19,14.01 C19.5483755,14.015484 19.9900274,14.461597 19.99,15.01 L19.99,18.36 L20,18.35 Z" id="Path"></path>
                    </g>
                </g>
            </g>
        </g>
    </g>
</svg>