<?xml version="1.0" encoding="UTF-8"?>
<svg width="200px" height="53px" viewBox="0 0 200 53" version="1.1" xmlns="http://www.w3.org/2000/svg" xmlns:xlink="http://www.w3.org/1999/xlink">
    <!-- Generator: Sketch 63.1 (92452) - https://sketch.com -->
    <title>assistencia-tecnica-colmeia</title>
    <desc>Created with Sketch.</desc>
    <g id="Page-1" stroke="none" stroke-width="1" fill="none" fill-rule="evenodd">
        <g id="assistencia-tecnica-colmeia" fill="#029858" fill-rule="nonzero">
            <g id="Group" transform="translate(82.587065, 3.980100)">
                <g transform="translate(0.000000, 19.511140)">
                    <polygon id="Path" points="13.2649728 4.16828899 13.2649728 7.84879948 8.7835631 7.84879948 8.7835631 20.486697 4.61585204 20.486697 4.61585204 7.84879948 0.313698682 7.84879948 0.313698682 4.16828899"></polygon>
                    <path d="M21.8244655,11.3962795 C21.8244655,14.9437595 17.8360108,15.6532555 15.4608636,15.8306295 C15.5504918,16.939217 16.4019597,17.826087 17.8808249,17.826087 C19.0459914,17.826087 20.1215298,17.293965 20.8833694,16.8061865 L21.9589078,19.51114 C21.8244655,19.6441705 19.9870875,20.9301319 17.2982416,20.9301319 C12.9960883,20.9301319 11.3379667,18.3138655 11.3379667,14.5890115 C11.3379667,11.0415315 13.4442292,7.58273848 17.6119403,7.58273848 C20.1215298,7.58273848 21.8244655,8.82435648 21.8244655,11.3962795 Z M17.7463826,0.354747999 C18.5530363,0.576465499 19.9870875,1.152931 19.9870875,2.26151849 C19.9870875,2.66060999 19.763017,3.10404499 19.1804337,3.68051049 C18.2393377,4.61172399 16.7156583,5.80899849 15.9090046,6.38546398 L14.7438381,5.36556349 L17.7463826,0.354747999 Z M17.3430557,10.465066 C16.1330751,10.465066 15.3264213,11.6623405 15.2367931,13.3473935 C16.536402,13.2587065 18.2841518,12.6378975 18.2841518,11.440623 C18.3289659,10.819814 17.925639,10.465066 17.3430557,10.465066 Z" id="Shape"></path>
                    <path d="M31.6387528,16.673156 L33.0728039,19.4667965 C31.9524515,20.3536665 30.4287722,20.9301319 28.501766,20.9301319 C24.82701,20.9301319 22.541491,18.712957 22.541491,14.4116375 C22.541491,9.53385248 25.6336637,7.62708198 28.5465801,7.62708198 C30.2943299,7.62708198 32.0868938,8.20354748 33.3416885,10.199005 L30.8769131,12.327493 C30.2943299,11.52931 29.6669325,10.8641575 28.7706506,10.8641575 C27.4262276,10.8641575 26.664388,12.061432 26.664388,14.2342635 C26.664388,16.407095 27.4710417,17.6930565 29.0843492,17.6930565 C29.891003,17.648713 30.6080286,17.382652 31.6387528,16.673156 Z" id="Path"></path>
                    <path d="M34.4620409,20.5310404 L34.4620409,10.465066 L34.1483423,7.93748648 L37.5542137,7.93748648 L37.7782842,9.26779148 C38.5401238,8.20354748 39.7052903,7.53839498 41.3185979,7.53839498 C43.693745,7.53839498 45.2174243,8.86869998 45.2174243,11.884058 L45.2174243,20.486697 L41.1393415,20.486697 L41.1393415,12.6378975 C41.1393415,11.52931 41.0048992,10.731127 40.0638031,10.731127 C39.077893,10.731127 38.4953097,11.52931 38.4953097,12.593554 L38.4953097,20.5310404 L34.4620409,20.5310404 L34.4620409,20.5310404 Z" id="Path"></path>
                    <path d="M49.7436482,2.30586199 C51.043257,2.30586199 51.8947248,3.19273199 51.8947248,4.34566299 C51.8947248,5.54293749 50.9984429,6.38546398 49.7436482,6.38546398 C48.3992252,6.38546398 47.5925715,5.54293749 47.5925715,4.34566299 C47.5477574,3.23707549 48.3992252,2.30586199 49.7436482,2.30586199 Z M47.6821997,20.5310404 L47.6821997,7.93748648 L51.7602826,7.93748648 L51.7602826,20.5310404 L47.6821997,20.5310404 L47.6821997,20.5310404 Z" id="Shape"></path>
                    <path d="M62.6052941,16.673156 L64.0393453,19.4667965 C62.9189928,20.3536665 61.3953135,20.9301319 59.4683073,20.9301319 C55.7935513,20.9301319 53.5080324,18.712957 53.5080324,14.4116375 C53.5080324,9.53385248 56.6002051,7.62708198 59.5131214,7.62708198 C61.2608712,7.62708198 63.0534351,8.20354748 64.3082298,10.199005 L61.8434545,12.327493 C61.2608712,11.52931 60.6334739,10.8641575 59.7371919,10.8641575 C58.392769,10.8641575 57.6309293,12.061432 57.6309293,14.2342635 C57.6309293,16.407095 58.4375831,17.6930565 60.0508906,17.6930565 C60.9023584,17.648713 61.619384,17.382652 62.6052941,16.673156 Z" id="Path"></path>
                    <path d="M75.870267,17.8704305 L76.1391516,20.5310404 L72.6884661,20.5310404 L72.5092097,19.3781095 L72.3747674,19.333766 C71.6577418,20.486697 70.4925753,20.8857884 69.2377806,20.8857884 C65.5182105,20.8857884 64.5771144,17.8704305 64.5771144,14.810729 C64.5771144,10.5094095 66.7281911,7.58273848 71.1647868,7.58273848 C72.0610687,7.58273848 73.8984467,7.80445598 75.870267,8.55829548 L75.870267,17.8704305 L75.870267,17.8704305 Z M71.7921841,10.64244 C71.5232995,10.553753 71.1199727,10.465066 70.6718317,10.465066 C69.1033383,10.465066 68.5655691,12.3718365 68.5655691,14.5003245 C68.5655691,16.407095 68.9240819,17.9591175 70.3133189,17.9591175 C71.2544149,17.9591175 71.7921841,17.2496215 71.7921841,16.5401255 L71.7921841,10.64244 Z" id="Shape"></path>
                </g>
                <g>
                    <path d="M0.313698682,19.9102315 L5.55694808,3.63616699 L10.2624283,3.63616699 L15.8641905,19.9102315 L11.4275949,19.9102315 L10.3520565,16.4514385 L5.37769169,16.4514385 L4.30215336,19.9102315 L0.313698682,19.9102315 Z M6.09471725,13.3473935 L9.50058866,13.3473935 L7.88728115,7.53839498 C7.84246705,7.53839498 7.79765296,7.53839498 7.79765296,7.53839498 L6.09471725,13.3473935 Z" id="Shape"></path>
                    <path d="M17.2086134,16.052347 C18.1048954,16.6288125 19.7182029,17.3383085 20.8385553,17.3383085 C21.5555809,17.3383085 22.0037218,17.0722475 22.0037218,16.407095 C22.0037218,15.6532555 21.2866963,15.431538 20.4352284,15.165477 C18.5082222,14.544668 16.5812161,13.835172 16.5812161,11.174562 C16.5812161,8.46960848 18.7322927,7.05061648 21.4211386,7.05061648 C23.3481448,7.05061648 25.0958946,7.80445598 26.3058752,8.86869998 L24.4684972,11.2189055 C23.3929589,10.376379 22.4070487,9.93294398 21.6452091,9.93294398 C20.9729976,9.93294398 20.5248566,10.2433485 20.5248566,10.819814 C20.5248566,11.52931 21.1970681,11.8397145 22.1829782,12.150119 C23.9755421,12.7265845 25.9921765,13.5247675 25.9921765,16.0966905 C25.9921765,18.8459875 24.0203562,20.2649795 21.0178117,20.2649795 C18.7771068,20.2649795 16.8501006,19.422453 16.1330751,18.890331 L17.2086134,16.052347 Z" id="Path"></path>
                    <path d="M27.7847404,16.052347 C28.6810224,16.6288125 30.2943299,17.3383085 31.4146823,17.3383085 C32.1317079,17.3383085 32.5798488,17.0722475 32.5798488,16.407095 C32.5798488,15.6532555 31.8628233,15.431538 31.0113554,15.165477 C29.0843492,14.544668 27.1573431,13.835172 27.1573431,11.174562 C27.1573431,8.46960848 29.3084197,7.05061648 31.9972656,7.05061648 C33.9242718,7.05061648 35.6720216,7.80445598 36.8820022,8.86869998 L35.0446242,11.2189055 C33.9690859,10.376379 32.9831757,9.93294398 32.2213361,9.93294398 C31.5491246,9.93294398 31.1009836,10.2433485 31.1009836,10.819814 C31.1009836,11.52931 31.7731951,11.8397145 32.7591052,12.150119 C34.5516691,12.7265845 36.5683035,13.5247675 36.5683035,16.0966905 C36.5683035,18.8459875 34.5964832,20.2649795 31.5939387,20.2649795 C29.3532338,20.2649795 27.4262276,19.422453 26.7092021,18.890331 L27.7847404,16.052347 Z" id="Path"></path>
                    <path d="M40.4223159,1.77374 C41.7219247,1.77374 42.5733926,2.66060999 42.5733926,3.81354099 C42.5733926,5.01081549 41.6771106,5.85334199 40.4223159,5.85334199 C39.077893,5.85334199 38.2712392,5.01081549 38.2712392,3.81354099 C38.2712392,2.66060999 39.077893,1.77374 40.4223159,1.77374 Z M38.3608674,19.9102315 L38.3608674,7.36102098 L42.4389503,7.36102098 L42.4389503,19.9102315 L38.3608674,19.9102315 Z" id="Shape"></path>
                    <path d="M44.8589115,16.052347 C45.7551935,16.6288125 47.368501,17.3383085 48.4888534,17.3383085 C49.205879,17.3383085 49.65402,17.0722475 49.65402,16.407095 C49.65402,15.6532555 48.9369944,15.431538 48.0855266,15.165477 C46.1585204,14.544668 44.2315142,13.835172 44.2315142,11.174562 C44.2315142,8.46960848 46.3825909,7.05061648 49.0714367,7.05061648 C50.9984429,7.05061648 52.7461927,7.80445598 53.9561733,8.86869998 L52.1187953,11.2189055 C51.043257,10.376379 50.0573469,9.93294398 49.2955072,9.93294398 C48.6232957,9.93294398 48.1751548,10.2433485 48.1751548,10.819814 C48.1751548,11.52931 48.8473662,11.8397145 49.8332764,12.150119 C51.6258403,12.7265845 53.6424746,13.5247675 53.6424746,16.0966905 C53.6424746,18.8459875 51.6706544,20.2649795 48.6681098,20.2649795 C46.427405,20.2649795 44.5003988,19.422453 43.7833732,18.890331 L44.8589115,16.052347 Z" id="Path"></path>
                    <path d="M59.4683073,2.88232749 L59.4683073,7.36102098 L62.5156659,7.36102098 L62.5156659,10.553753 L59.4683073,10.553753 L59.4683073,15.520225 C59.4683073,16.85053 60.0957047,17.205278 60.9471725,17.205278 C61.3953135,17.205278 61.8434545,17.027904 62.2467814,16.8061865 L63.1430633,19.3781095 C62.3812237,19.865888 61.0368007,20.2649795 59.6923778,20.2649795 C55.5694808,20.2649795 55.3902245,17.826087 55.3902245,15.3871945 L55.3902245,2.88232749 L59.4683073,2.88232749 Z" id="Path"></path>
                    <path d="M73.7640044,10.819814 C73.7640044,14.367294 69.7755497,15.07679 67.4004026,15.2098205 C67.4900308,16.318408 68.3414986,17.205278 69.8203638,17.205278 C70.9855304,17.205278 72.0610687,16.673156 72.8229084,16.1853775 L73.8984467,18.890331 C73.7640044,19.0233615 71.9714405,20.2649795 69.2377806,20.2649795 C64.9804413,20.2649795 63.2775056,17.648713 63.2775056,13.923859 C63.2775056,10.376379 65.3837682,6.96192948 69.5066651,6.96192948 C72.0610687,7.00627298 73.7640044,8.24789098 73.7640044,10.819814 Z M64.7563708,4.70041099 C65.4285823,3.68051049 66.5937488,2.08414449 67.4452167,1.1085875 C68.072614,0.354747999 68.3863127,0.1330305 69.0585242,0.1330305 C69.7307356,0.1330305 70.0444343,0.354747999 70.6718317,1.1085875 C71.5232995,2.08414449 72.7332802,3.72485399 73.4054916,4.70041099 L72.1058828,5.76465499 L69.0585242,3.19273199 L66.1007937,5.76465499 L64.7563708,4.70041099 Z M69.3274088,9.88860048 C68.1174281,9.88860048 67.3107744,11.085875 67.2211462,12.770928 C68.520755,12.682241 70.2685048,12.1057755 70.2685048,10.8641575 C70.2685048,10.2433485 69.909992,9.88860048 69.3274088,9.88860048 Z" id="Shape"></path>
                    <path d="M75.3773119,19.9102315 L75.3773119,9.88860048 L75.0636132,7.36102098 L78.4246705,7.36102098 L78.648741,8.69132598 C79.4105807,7.62708198 80.5757472,6.96192948 82.1890547,6.96192948 C84.5642019,6.96192948 86.0878812,8.29223448 86.0878812,11.3075925 L86.0878812,19.865888 L82.0097983,19.865888 L82.0097983,12.061432 C82.0097983,10.9528445 81.875356,10.1546615 80.93426,10.1546615 C79.9483499,10.1546615 79.3657666,10.9528445 79.3657666,11.972745 L79.3657666,19.9102315 L75.3773119,19.9102315 Z" id="Path"></path>
                    <path d="M96.9328928,16.052347 L98.3669439,18.801644 C97.2465915,19.688514 95.7229122,20.2649795 93.795906,20.2649795 C90.1659641,20.2649795 87.8804451,18.0478045 87.8804451,13.7908285 C87.8804451,8.95738698 90.9726178,7.00627298 93.8855342,7.00627298 C95.633284,7.00627298 97.4258479,7.58273848 98.6358285,9.53385248 L96.1710531,11.6623405 C95.5884699,10.8641575 94.9610725,10.199005 94.0647906,10.199005 C92.7203676,10.199005 91.958528,11.3962795 91.958528,13.569111 C91.958528,15.7419425 92.7651817,16.9835605 94.3784892,16.9835605 C95.2299571,17.027904 95.9469826,16.761843 96.9328928,16.052347 Z" id="Path"></path>
                    <path d="M101.817629,1.77374 C103.117238,1.77374 103.968706,2.66060999 103.968706,3.81354099 C103.968706,5.01081549 103.072424,5.85334199 101.817629,5.85334199 C100.473206,5.85334199 99.6665527,5.01081549 99.6665527,3.81354099 C99.6665527,2.66060999 100.473206,1.77374 101.817629,1.77374 Z M99.7561809,19.9102315 L99.7561809,7.36102098 L103.834264,7.36102098 L103.834264,19.9102315 L99.7561809,19.9102315 Z" id="Shape"></path>
                    <path d="M116.875166,17.2496215 L117.144051,19.9102315 L113.693365,19.9102315 L113.514109,18.7573005 L113.379667,18.712957 C112.662641,19.865888 111.497474,20.2649795 110.24268,20.2649795 C106.52311,20.2649795 105.582014,17.2496215 105.582014,14.18992 C105.582014,9.88860048 107.73309,7.00627298 112.169686,7.00627298 C113.065968,7.00627298 114.903346,7.22799048 116.875166,7.98182998 L116.875166,17.2496215 L116.875166,17.2496215 Z M112.841897,10.0659745 C112.573013,9.97728748 112.169686,9.88860048 111.721545,9.88860048 C110.153052,9.88860048 109.615282,11.795371 109.615282,13.923859 C109.615282,15.8306295 109.973795,17.382652 111.363032,17.382652 C112.304128,17.382652 112.841897,16.7174995 112.841897,16.0080035 L112.841897,10.0659745 Z" id="Shape"></path>
                </g>
            </g>
            <rect id="Rectangle" x="67.6616915" y="4.97512438" width="1.99004975" height="40.7960199"></rect>
            <path d="M45.2554745,1.77862794 L59.6201474,26.3681592 L45.2554745,50.9576905 L16.4810982,50.9576905 L2.11642517,26.3681592 L16.4810982,1.77862794 L45.2554745,1.77862794 M46.2911719,0 L15.4454007,0 L0,26.3681592 L15.4454007,52.7363184 L46.2911719,52.7363184 L61.6915423,26.3681592 L46.2911719,0 L46.2911719,0 Z" id="Shape"></path>
            <g id="Group" transform="translate(14.925373, 6.965174)">
                <path d="M3.99354578,11.3109153 C1.99677289,11.3109153 0.310609117,10.3350716 0.310609117,7.71803632 L0.310609117,3.81466163 C0.310609117,1.0202002 1.99677289,0.221782653 3.99354578,0.221782653 C5.99031868,0.221782653 7.67648245,1.0202002 7.67648245,3.81466163 L7.67648245,7.71803632 C7.67648245,10.3350716 5.99031868,11.3109153 3.99354578,11.3109153 Z M2.79548205,7.40754061 C2.79548205,8.56081041 3.10609117,9.1374453 4.03791852,9.1374453 C4.96974587,9.1374453 5.23598225,8.56081041 5.23598225,7.40754061 L5.23598225,4.08080082 C5.23598225,2.92753102 4.92537313,2.35089612 4.03791852,2.35089612 C3.10609117,2.35089612 2.79548205,2.92753102 2.79548205,4.08080082 L2.79548205,7.40754061 Z" id="Shape"></path>
                <path d="M10.1613554,5.54456633 C9.36264623,5.10100102 8.83017346,4.16951388 8.83017346,3.14931367 C8.83017346,1.19762633 10.5163372,0.177426122 12.3799919,0.177426122 C14.2436466,0.177426122 15.9298104,1.19762633 15.9298104,3.14931367 C15.9298104,4.16951388 15.3973376,5.10100102 14.5542557,5.54456633 C15.3973376,5.9437751 16.0629286,6.91961877 16.0629286,8.16160163 C16.0629286,10.202002 14.4211376,11.3109153 12.3799919,11.3109153 C10.3388463,11.3109153 8.69705526,10.2463586 8.69705526,8.16160163 C8.65268253,6.9639753 9.3182735,5.9437751 10.1613554,5.54456633 Z M12.3356192,9.18180183 C13.0012102,9.18180183 13.5780557,8.60516694 13.5780557,7.85110592 C13.5780557,7.05268837 12.9568374,6.56476653 12.3356192,6.56476653 C11.714401,6.56476653 11.0931827,7.05268837 11.0931827,7.85110592 C11.0931827,8.60516694 11.6256555,9.18180183 12.3356192,9.18180183 Z M12.3356192,4.65743571 C12.9124647,4.65743571 13.4005647,4.12515735 13.4005647,3.50416592 C13.4005647,2.88317449 12.9124647,2.39525265 12.3356192,2.39525265 C11.714401,2.39525265 11.2263009,2.88317449 11.2263009,3.50416592 C11.2263009,4.12515735 11.714401,4.65743571 12.3356192,4.65743571 Z" id="Shape"></path>
                <path d="M20.6333199,11.3109153 C18.636547,11.3109153 16.9503832,10.3350716 16.9503832,7.71803632 L16.9503832,3.81466163 C16.9503832,1.0202002 18.636547,0.221782653 20.6333199,0.221782653 C22.6300928,0.221782653 24.3162566,1.0202002 24.3162566,3.81466163 L24.3162566,7.71803632 C24.3162566,10.3350716 22.6300928,11.3109153 20.6333199,11.3109153 Z M19.3908834,7.40754061 C19.3908834,8.56081041 19.7014925,9.1374453 20.6333199,9.1374453 C21.5651472,9.1374453 21.8313836,8.56081041 21.8313836,7.40754061 L21.8313836,4.08080082 C21.8313836,2.92753102 21.5207745,2.35089612 20.6333199,2.35089612 C19.7014925,2.35089612 19.3908834,2.92753102 19.3908834,4.08080082 L19.3908834,7.40754061 Z" id="Shape"></path>
                <path d="M28.9310206,11.3109153 C26.9342477,11.3109153 25.2480839,10.3350716 25.2480839,7.71803632 L25.2480839,3.81466163 C25.2480839,1.0202002 26.9342477,0.221782653 28.9310206,0.221782653 C30.9277935,0.221782653 32.6139572,1.0202002 32.6139572,3.81466163 L32.6139572,7.71803632 C32.6139572,10.3350716 30.9277935,11.3109153 28.9310206,11.3109153 Z M27.6885841,7.40754061 C27.6885841,8.56081041 27.9991932,9.1374453 28.9310206,9.1374453 C29.8628479,9.1374453 30.1290843,8.56081041 30.1290843,7.40754061 L30.1290843,4.08080082 C30.1290843,2.92753102 29.8184752,2.35089612 28.9310206,2.35089612 C27.9991932,2.35089612 27.6885841,2.92753102 27.6885841,4.08080082 L27.6885841,7.40754061 Z" id="Shape"></path>
                <polygon id="Path" points="5.05849133 16.722412 5.05849133 12.9964635 11.53691 12.9964635 11.53691 14.6820116 8.741428 23.7751004 6.21218233 23.7751004 9.05203711 15.1699335 7.09963695 15.1699335 7.09963695 16.7667686 5.05849133 16.7667686"></polygon>
                <polygon id="Path" points="13.356192 16.722412 13.356192 12.9964635 19.8789835 12.9964635 19.8789835 14.6820116 17.0835014 23.7751004 14.5542557 23.7751004 17.3941105 15.1699335 15.4860831 15.1699335 15.4860831 16.7667686 13.356192 16.7667686"></polygon>
                <polygon id="Path" points="26.4461476 23.7751004 23.9612747 23.7751004 23.9612747 15.6578553 22.4969746 16.5893424 22.4969746 14.1940898 24.2718838 12.9964635 26.4461476 12.9964635 26.4461476 23.7751004"></polygon>
                <path d="M1.81928197,30.8277888 C1.02057281,30.3842235 0.48810004,29.4527363 0.48810004,28.4325361 C0.48810004,26.4808488 2.17426382,25.4606486 4.03791852,25.4606486 C5.90157322,25.4606486 7.58773699,26.4808488 7.58773699,28.4325361 C7.58773699,29.4527363 7.05526422,30.3842235 6.21218233,30.8277888 C7.05526422,31.2269975 7.72085518,32.2028412 7.72085518,33.4448241 C7.72085518,35.4852245 6.07906414,36.5941377 4.03791852,36.5941377 C1.99677289,36.5941377 0.354981848,35.529581 0.354981848,33.4448241 C0.310609117,32.2028412 1.02057281,31.2269975 1.81928197,30.8277888 Z M3.99354578,34.4206677 C4.65913675,34.4206677 5.23598225,33.8440328 5.23598225,33.0899718 C5.23598225,32.2915543 4.61476402,31.8036324 3.99354578,31.8036324 C3.37232755,31.8036324 2.75110932,32.2915543 2.75110932,33.0899718 C2.79548205,33.8440328 3.28358209,34.4206677 3.99354578,34.4206677 Z M3.99354578,29.8963016 C4.57039129,29.8963016 5.05849133,29.3640233 5.05849133,28.7430318 C5.05849133,28.1220404 4.57039129,27.6341186 3.99354578,27.6341186 C3.37232755,27.6341186 2.88422751,28.1220404 2.88422751,28.7430318 C2.92860024,29.4083798 3.41670028,29.8963016 3.99354578,29.8963016 Z" id="Shape"></path>
                <path d="M12.3356192,36.5497812 C10.3388463,36.5497812 8.65268253,35.5739375 8.65268253,32.9569022 L8.65268253,29.0535275 C8.65268253,26.2590661 10.3388463,25.4606486 12.3356192,25.4606486 C14.3323921,25.4606486 16.0185559,26.2590661 16.0185559,29.0535275 L16.0185559,32.9569022 C16.0185559,35.6182941 14.3323921,36.5497812 12.3356192,36.5497812 Z M11.0931827,32.6907631 C11.0931827,33.8440328 11.4037919,34.4206677 12.3356192,34.4206677 C13.2674466,34.4206677 13.5336829,33.8440328 13.5336829,32.6907631 L13.5336829,29.3640233 C13.5336829,28.2107535 13.2230738,27.6341186 12.3356192,27.6341186 C11.4037919,27.6341186 11.0931827,28.2107535 11.0931827,29.3640233 L11.0931827,32.6907631 Z" id="Shape"></path>
                <path d="M20.6333199,36.5497812 C18.636547,36.5497812 16.9503832,35.5739375 16.9503832,32.9569022 L16.9503832,29.0535275 C16.9503832,26.2590661 18.636547,25.4606486 20.6333199,25.4606486 C22.6300928,25.4606486 24.3162566,26.2590661 24.3162566,29.0535275 L24.3162566,32.9569022 C24.3162566,35.6182941 22.6300928,36.5497812 20.6333199,36.5497812 Z M19.3908834,32.6907631 C19.3908834,33.8440328 19.7014925,34.4206677 20.6333199,34.4206677 C21.5651472,34.4206677 21.8313836,33.8440328 21.8313836,32.6907631 L21.8313836,29.3640233 C21.8313836,28.2107535 21.5207745,27.6341186 20.6333199,27.6341186 C19.7014925,27.6341186 19.3908834,28.2107535 19.3908834,29.3640233 L19.3908834,32.6907631 Z" id="Shape"></path>
                <path d="M28.9310206,36.5497812 C26.9342477,36.5497812 25.2480839,35.5739375 25.2480839,32.9569022 L25.2480839,29.0535275 C25.2480839,26.2590661 26.9342477,25.4606486 28.9310206,25.4606486 C30.9277935,25.4606486 32.6139572,26.2590661 32.6139572,29.0535275 L32.6139572,32.9569022 C32.6139572,35.6182941 30.9277935,36.5497812 28.9310206,36.5497812 Z M27.6885841,32.6907631 C27.6885841,33.8440328 27.9991932,34.4206677 28.9310206,34.4206677 C29.8628479,34.4206677 30.1290843,33.8440328 30.1290843,32.6907631 L30.1290843,29.3640233 C30.1290843,28.2107535 29.8184752,27.6341186 28.9310206,27.6341186 C27.9991932,27.6341186 27.6885841,28.2107535 27.6885841,29.3640233 L27.6885841,32.6907631 Z" id="Shape"></path>
            </g>
        </g>
    </g>
</svg>