<?xml version="1.0" encoding="UTF-8"?>
<svg width="163px" height="52px" viewBox="0 0 163 52" version="1.1" xmlns="http://www.w3.org/2000/svg" xmlns:xlink="http://www.w3.org/1999/xlink">
    <!-- Generator: Sketch 63.1 (92452) - https://sketch.com -->
    <title>img-btn-apple</title>
    <desc>Created with Sketch.</desc>
    <g id="Page-1" stroke="none" stroke-width="1" fill="none" fill-rule="evenodd">
        <g id="LD_v4" transform="translate(-923.000000, -1600.000000)">
            <g id="Group-9" transform="translate(0.000000, 1395.000000)">
                <g id="Group-5" transform="translate(923.000000, 85.000000)">
                    <g id="Group-3" transform="translate(0.000000, 80.000000)">
                        <g id="Store-Buttons" transform="translate(0.000000, 40.000000)">
                            <g id="UI/Buttons/AppStore" transform="translate(0.000000, 0.000000)">
                                <g id="App-Store-Badge-US-Black" transform="translate(0.000000, 0.000000)">
                                    <path d="M10.4666466,51.9972812 C10.0454826,51.9972812 9.63449246,51.9919795 9.21663221,51.9827355 C8.35100085,51.9716438 7.48739268,51.8975348 6.63289042,51.7610164 C5.83611017,51.6260657 5.06424429,51.3750327 4.3427525,51.0161978 C3.62787641,50.6603362 2.97585194,50.1937203 2.4116573,49.6342257 C1.83929606,49.0813216 1.36277918,48.4400472 1.00099018,47.7358151 C0.635214567,47.027006 0.382076076,46.2672482 0.250392688,45.4830074 C0.108186061,44.6403318 0.0312463832,43.7882539 0.0202371036,42.9341211 C0.0114732213,42.6474224 0,41.6928474 0,41.6928474 L0,10.2898065 C0,10.2898065 0.0122196719,9.34989961 0.0203062194,9.07376346 C0.0308475203,8.22098365 0.107339792,7.37022799 0.249120957,6.52886019 C0.381047415,5.74247109 0.634381876,4.98052235 1.00035431,4.2693914 C1.36081366,3.56564572 1.83468501,2.92389248 2.4035984,2.36900972 C2.97187234,1.8088548 3.62598251,1.3398362 4.34207517,0.979057827 C5.06190876,0.621375807 5.83231591,0.372113676 6.62748556,0.239622503 C7.48479415,0.101732699 8.35140043,0.0271827979 9.22003271,0.0165983478 L10.4673239,0 L152.525917,0 L153.788109,0.0172644568 C154.64884,0.0273229708 155.507574,0.101207788 156.357005,0.238290285 C157.160224,0.372443364 157.93866,0.623444729 158.666716,0.983040887 C160.101309,1.71011384 161.26861,2.86041183 162.005009,4.27270836 C162.36514,4.97893008 162.614567,5.73466358 162.744824,6.51426017 C162.888294,7.36253142 162.96859,8.21997264 162.985071,9.07974485 C162.98908,9.46472864 162.98908,9.87825996 162.98908,10.2898065 C163,10.7995838 163,11.2847966 163,11.7739925 L163,40.224553 C163,40.7184252 163,41.2003346 162.98908,41.6861863 C162.98908,42.1282652 162.98908,42.5332322 162.983689,42.9500261 C162.967564,43.7944561 162.888607,44.6365926 162.747451,45.4696852 C162.618467,46.2595833 162.366706,47.0252714 162.001,47.7398933 C161.636654,48.4364817 161.162873,49.0722012 160.59712,49.6236223 C160.032418,50.1861236 159.379243,50.6554695 158.662708,51.013615 C157.936668,51.3752084 157.159378,51.6271697 156.357005,51.7610164 C155.502567,51.8982634 154.638876,51.9723771 153.77318,51.9827355 C153.3683,51.9919795 152.944344,51.9972812 152.53269,51.9972812 L151.03426,52 L10.4666466,51.9972812 Z" id="Background-Black" fill="#000000" fill-rule="nonzero"></path>
                                    <path d="M57.8062757,35.4608717 L51.3109836,35.4608717 L49.7511474,39.9733383 L47,39.9733383 L53.1522358,23.2783749 L56.0105815,23.2783749 L62.1628172,39.9733383 L59.3647534,39.9733383 L57.8062757,35.4608717 Z M51.9836897,33.3785992 L57.1322797,33.3785992 L54.5941978,26.0551998 L54.5231714,26.0551998 L51.9836897,33.3785992 Z M75.4495552,33.888012 C75.4495552,37.6705008 73.3831757,40.1006814 70.2648482,40.1006814 C68.6530119,40.1832886 67.1347502,39.356158 66.3558855,37.9711258 L66.2968798,37.9711258 L66.2968798,44 L63.7467359,44 L63.7467359,27.8013682 L66.2151775,27.8013682 L66.2151775,29.8258712 L66.2620801,29.8258712 C67.0755468,28.449522 68.5954457,27.6227475 70.2179455,27.6740117 C73.371059,27.6740251 75.4495552,30.1160231 75.4495552,33.888012 Z M72.828385,33.888012 C72.828385,31.4236967 71.5285169,29.8035539 69.5452257,29.8035539 C67.5967753,29.8035539 66.2861901,31.457818 66.2861901,33.888012 C66.2861901,36.3405234 67.5967753,37.9829701 69.5452257,37.9829701 C71.5285306,37.9829701 72.828385,36.3746581 72.828385,33.888012 Z M89.1235626,33.888012 C89.1235626,37.6705008 87.0571832,40.1006814 83.9388556,40.1006814 C82.3270194,40.1832886 80.8087577,39.356158 80.0298929,37.9711258 L79.9708872,37.9711258 L79.9708872,44 L77.4207434,44 L77.4207434,27.8013682 L79.88913,27.8013682 L79.88913,29.8258712 L79.9360327,29.8258712 C80.7495053,28.4495229 82.26941,27.6227532 83.8919118,27.6740251 C87.0451213,27.6740251 89.1235626,30.1160231 89.1235626,33.888012 Z M86.5024061,33.888012 C86.5024061,31.4236967 85.2025244,29.8035539 83.2192331,29.8035539 C81.2707827,29.8035539 79.9601976,31.457818 79.9601976,33.888012 C79.9601976,36.3405234 81.2707827,37.9829701 83.2192331,37.9829701 C85.2025381,37.9829701 86.5024061,36.3746581 86.5024061,33.888012 L86.5024061,33.888012 Z M98.1609574,35.3216977 C98.3499128,36.9772794 99.9915062,38.0643073 102.234752,38.0643073 C104.38422,38.0643073 105.930649,36.9772256 105.930649,35.4844393 C105.930649,34.1885967 104.997961,33.4126936 102.789543,32.88095 L100.581124,32.3597197 C97.4520794,31.6192421 95.9994415,30.1855429 95.9994415,27.8590706 C95.9994415,24.9785508 98.5616472,23 102.199911,23 C105.800631,23 108.269059,24.9785508 108.352147,27.8590706 L105.777852,27.8590706 C105.623751,26.1929891 104.218016,25.1873118 102.163698,25.1873118 C100.10938,25.1873118 98.7036588,26.2048199 98.7036588,27.6857753 C98.7036588,28.8660788 99.601506,29.5606044 101.797863,30.0922807 L103.675287,30.543924 C107.171511,31.3539887 108.624149,32.7299451 108.624149,35.1719163 C108.624149,38.2953184 106.084723,40.2515518 102.045769,40.2515518 C98.2667834,40.2515518 95.7153085,38.3412705 95.5504768,35.3215767 L98.1609574,35.3216977 Z M114.127816,24.9208484 L114.127816,27.8013682 L116.49035,27.8013682 L116.49035,29.779919 L114.127816,29.779919 L114.127816,36.4901838 C114.127816,37.5326309 114.600864,38.0184089 115.639405,38.0184089 C115.919876,38.0136173 116.199894,37.9943205 116.478288,37.960599 L116.478288,39.9273324 C116.011358,40.0128098 115.536764,40.0515222 115.061835,40.0428715 C112.546546,40.0428715 111.565611,39.1172677 111.565611,36.7566606 L111.565611,29.779919 L109.759213,29.779919 L109.759213,27.8013682 L111.565583,27.8013682 L111.565583,24.9208484 L114.127816,24.9208484 Z M117.858609,33.888012 C117.858609,30.058267 120.160833,27.6517078 123.750877,27.6517078 C127.352969,27.6517078 129.644476,30.0582132 129.644476,33.888012 C129.644476,37.7282704 127.365031,40.1243163 123.750877,40.1243163 C120.137999,40.1243163 117.858609,37.7282569 117.858609,33.888012 Z M127.046084,33.888012 C127.046084,31.2608879 125.817243,29.7103455 123.750863,29.7103455 C121.684484,29.7103455 120.456987,31.2727053 120.456987,33.888012 C120.456987,36.5256361 121.684484,38.0643745 123.750863,38.0643745 C125.817243,38.0643745 127.046084,36.5256361 127.046084,33.888012 L127.046084,33.888012 Z M131.746972,27.8013682 L134.179201,27.8013682 L134.179201,29.873114 L134.238206,29.873114 C134.577388,28.5394373 135.824681,27.6215546 137.226543,27.6739982 C137.520424,27.6729929 137.813495,27.704262 138.100266,27.7672201 L138.100266,30.1041923 C137.729259,29.9931211 137.342235,29.9421246 136.954458,29.9532143 C136.20474,29.9234159 135.47918,30.2161482 134.968287,30.7545483 C134.457395,31.2929484 134.212212,32.0232268 134.297116,32.7536338 L134.297116,39.9733114 L131.746972,39.9733114 L131.746972,27.8013682 Z M149.857947,36.3982795 C149.514891,38.6078952 147.31852,40.1243028 144.508408,40.1243028 C140.894255,40.1243028 138.650995,37.7518783 138.650995,33.9457682 C138.650995,30.1278406 140.906317,27.6516943 144.40121,27.6516943 C147.83847,27.6516943 150,29.9650317 150,33.6556162 L150,34.511633 L141.225263,34.511633 L141.225263,34.662611 C141.143338,35.5687902 141.462715,36.4657819 142.102156,37.1254205 C142.741597,37.7850591 143.639471,38.1437667 144.567387,38.1102998 C145.804918,38.2239024 146.971667,37.5276803 147.436463,36.3982661 L149.857947,36.3982795 Z M141.237301,32.7654781 L147.448511,32.7654781 C147.49479,31.951202 147.192257,31.1549385 146.6138,30.5685155 C146.035344,29.9820924 145.233411,29.6586801 144.40121,29.6761973 C143.562426,29.6712932 142.756393,29.9948571 142.162267,30.5749709 C141.568141,31.1550848 141.235152,31.9436806 141.237301,32.7654781 L141.237301,32.7654781 Z" id="App-Store" fill="#FFFFFF" fill-rule="nonzero"></path>
                                    <path d="M51.9612191,10.4161418 C53.045187,10.3360051 54.1069097,10.7608707 54.8541549,11.5737973 C55.6014002,12.3867238 55.9554044,13.5020244 55.8187301,14.6127201 C55.8187301,17.3109187 54.4031974,18.8618963 51.9612191,18.8618963 L49,18.8618963 L49,10.4161418 L51.9612191,10.4161418 Z M50.2733021,17.6674843 L51.8189884,17.6674843 C52.5936479,17.7151878 53.3479354,17.4007558 53.8724136,16.8114944 C54.3968917,16.222233 54.6357231,15.4208766 54.5225931,14.6299319 C54.6274924,13.8422696 54.3852216,13.047526 53.8620438,12.46307 C53.3388661,11.878614 52.5895312,11.5656081 51.8189884,11.6096621 L50.2733021,11.6096621 L50.2733021,17.6674843 Z M57.2570703,15.6721832 C57.1509842,14.5297536 57.682723,13.4241283 58.629277,12.8190034 C59.5758309,12.2138786 60.7735436,12.2138786 61.7200976,12.8190034 C62.6666516,13.4241283 63.1983904,14.5297536 63.0923043,15.6721832 C63.2004088,16.8158405 62.6691553,17.9236103 61.7217621,18.5300378 C60.7743689,19.1364653 59.5750057,19.1364653 58.6276125,18.5300378 C57.6802193,17.9236103 57.1489658,16.8158405 57.2570703,15.6721832 Z M61.8364375,15.6721832 C61.8364375,14.2906065 61.2339771,13.4826685 60.1767001,13.4826685 C59.1153838,13.4826685 58.5183504,14.2906065 58.5183504,15.6721974 C58.5183504,17.064843 59.115425,17.866553 60.1767001,17.866553 C61.2340046,17.866553 61.8364375,17.0592944 61.8364375,15.6721832 L61.8364375,15.6721832 Z M70.8489157,18.861769 L69.5823184,18.861769 L68.3036442,14.1675615 L68.2070423,14.1675615 L66.9337265,18.861769 L65.6791925,18.861769 L63.9738401,12.4881036 L65.2122715,12.4881036 L66.3205492,17.3515845 L66.4117928,17.3515845 L67.6837622,12.4881036 L68.8551039,12.4881036 L70.1270733,17.3515845 L70.2236752,17.3515845 L71.3265809,12.4881036 L72.5475632,12.4881036 L70.8489157,18.861769 Z M73.9818777,12.4881036 L75.1572451,12.4881036 L75.1572451,13.5006164 L75.2484887,13.5006164 C75.5657801,12.7551392 76.3071984,12.2991235 77.0947252,12.3650728 C77.7045043,12.3178418 78.3020448,12.5588334 78.7186312,13.0200038 C79.1352176,13.4811741 79.3256426,14.1124776 79.2361397,14.7356659 L79.2361397,18.8616982 L78.0151573,18.8616982 L78.0151573,15.0515374 C78.0151573,14.0272764 77.5831208,13.517899 76.680124,13.517899 C76.2665201,13.4980532 75.8651285,13.6652791 75.5811817,13.9757354 C75.2972349,14.2861917 75.1590519,14.7089154 75.20286,15.1330814 L75.20286,18.861769 L73.9818777,18.861769 L73.9818777,12.4881036 Z M81.181671,10 L82.4026534,10 L82.4026534,18.8617548 L81.181671,18.8617548 L81.181671,10 Z M84.0999544,15.6721832 C83.9939497,14.5296789 84.5257724,13.4240255 85.4723966,12.8188914 C86.4190209,12.2137572 87.6167951,12.2137572 88.5634193,12.8188914 C89.5100435,13.4240255 90.0418662,14.5296789 89.9358616,15.6721832 C90.0438288,16.8158814 89.512478,17.9236199 88.5650377,18.5300207 C87.6175975,19.1364216 86.4182185,19.1364216 85.4707782,18.5300207 C84.523338,17.9236199 83.9919872,16.8158814 84.0999544,15.6721832 L84.0999544,15.6721832 Z M88.6793216,15.6721832 C88.6793216,14.2906065 88.0768611,13.4826685 87.0195842,13.4826685 C85.9582678,13.4826685 85.3612345,14.2906065 85.3612345,15.6721974 C85.3612345,17.064843 85.9583091,17.866553 87.0195842,17.866553 C88.0768749,17.866553 88.6793216,17.0592944 88.6793216,15.6721832 L88.6793216,15.6721832 Z M91.2212544,17.0592944 C91.2212544,15.9120027 92.0504567,15.2505919 93.5223348,15.156592 L95.1981749,15.0570718 L95.1981749,14.5069294 C95.1981749,13.8337563 94.7661383,13.4536376 93.9315776,13.4536376 C93.249978,13.4536376 92.777685,13.7114333 92.6421592,14.1620554 L91.4600869,14.1620554 C91.5848685,13.067291 92.5844673,12.3651011 93.987923,12.3651011 C95.5389815,12.3651011 96.4137988,13.1605832 96.4137988,14.5069294 L96.4137988,18.8617831 L95.2384314,18.8617831 L95.2384314,17.9660732 L95.1418294,17.9660732 C94.7426282,18.6201892 94.0327186,19.0024833 93.283516,18.9667952 C92.758307,19.023076 92.234498,18.8478419 91.8415841,18.4844139 C91.4486701,18.1209858 91.2233236,17.6032843 91.2212544,17.0592944 L91.2212544,17.0592944 Z M95.1981749,16.5146723 L95.1981749,15.9818126 L93.6873729,16.0813328 C92.8353631,16.1400739 92.4489415,16.4386486 92.4489415,17.0005392 C92.4489415,17.574178 92.9319651,17.9079973 93.5961843,17.9079973 C93.9893878,17.9490027 94.3819101,17.8238561 94.6838946,17.5612062 C94.9858791,17.2985563 95.1714676,16.9208934 95.1981749,16.5146723 Z M98.0185098,15.6721832 C98.0185098,13.6582124 99.0234807,12.3823696 100.586602,12.3823696 C101.375901,12.3449029 102.115152,12.7806101 102.483826,13.5005739 L102.57507,13.5005739 L102.57507,10 L103.796052,10 L103.796052,18.8617548 L102.626057,18.8617548 L102.626057,17.8547623 L102.529455,17.8547623 C102.132913,18.5687527 101.384554,18.997095 100.586616,18.9667952 C99.0127502,18.966866 98.0185098,17.6909949 98.0185098,15.6721832 Z M99.2797898,15.6721832 C99.2797898,17.0240498 99.8983392,17.8375221 100.932822,17.8375221 C101.961906,17.8375221 102.597918,17.0123157 102.597918,15.6777176 C102.597918,14.3493476 101.955229,13.5123787 100.932822,13.5123787 C99.9050028,13.5123787 99.2797486,14.3313714 99.2797486,15.6721832 L99.2797898,15.6721832 Z M108.847712,15.6721832 C108.741626,14.5297536 109.273365,13.4241283 110.219919,12.8190034 C111.166473,12.2138786 112.364185,12.2138786 113.310739,12.8190034 C114.257293,13.4241283 114.789032,14.5297536 114.682946,15.6721832 C114.791051,16.8158405 114.259797,17.9236103 113.312404,18.5300378 C112.365011,19.1364653 111.165648,19.1364653 110.218254,18.5300378 C109.270861,17.9236103 108.739608,16.8158405 108.847712,15.6721832 L108.847712,15.6721832 Z M113.427066,15.6721832 C113.427066,14.2906065 112.824619,13.4826685 111.767342,13.4826685 C110.706026,13.4826685 110.108992,14.2906065 110.108992,15.6721974 C110.108992,17.064843 110.706067,17.866553 111.767342,17.866553 C112.824633,17.866553 113.427066,17.0592944 113.427066,15.6721832 Z M116.321209,12.4881036 L117.496576,12.4881036 L117.496576,13.5006164 L117.58782,13.5006164 C117.905111,12.7551392 118.646529,12.2991235 119.434056,12.3650728 C120.043835,12.3178418 120.641376,12.5588334 121.057962,13.0200038 C121.474549,13.4811741 121.664974,14.1124776 121.575471,14.7356659 L121.575471,18.8616982 L120.354488,18.8616982 L120.354488,15.0515374 C120.354488,14.0272764 119.922452,13.517899 119.019455,13.517899 C118.605851,13.4980532 118.20446,13.6652791 117.920513,13.9757354 C117.636566,14.2861917 117.498383,14.7089154 117.542191,15.1330814 L117.542191,18.861769 L116.321209,18.861769 L116.321209,12.4881036 Z M128.474714,10.9012585 L128.474714,12.5171345 L129.815119,12.5171345 L129.815119,13.5766543 L128.474714,13.5766543 L128.474714,16.8540261 C128.474714,17.5216648 128.741726,17.8140115 129.349531,17.8140115 C129.505138,17.8134985 129.660589,17.8038057 129.815119,17.7849807 L129.815119,18.8327381 C129.595851,18.8731502 129.373693,18.8946499 129.150955,18.8970136 C127.793114,18.8970136 127.252385,18.4049188 127.252385,17.1760831 L127.252385,13.5765976 L126.270235,13.5765976 L126.270235,12.5170778 L127.252385,12.5170778 L127.252385,10.9012585 L128.474714,10.9012585 Z M131.482894,10 L132.693146,10 L132.693146,13.5123646 L132.789748,13.5123646 C133.122281,12.7603631 133.876675,12.3037663 134.676173,12.3706072 C135.282489,12.3366185 135.871941,12.5829156 136.283974,13.0424128 C136.696007,13.5019101 136.887706,14.126748 136.806857,14.7467347 L136.806857,18.861769 L135.584651,18.861769 L135.584651,15.0570435 C135.584651,14.0389963 135.12438,13.5234051 134.261695,13.5234051 C133.836911,13.4875145 133.418408,13.6466071 133.118069,13.9581509 C132.817729,14.2696947 132.666178,14.7019221 132.703932,15.139281 L132.703932,18.861769 L131.482949,18.861769 L131.482894,10 Z M143.926205,17.1408384 C143.583828,18.3430913 142.454504,19.1198803 141.245408,18.9847856 C140.420443,19.0072207 139.627606,18.6549446 139.077254,18.0214245 C138.526903,17.3879044 138.274677,16.5371864 138.387496,15.6949861 C138.277673,14.8504453 138.528955,13.9983641 139.076241,13.3594918 C139.623528,12.7206196 140.412966,12.3578211 141.240036,12.365087 C142.961491,12.365087 144,13.5767109 144,15.578155 L144,16.0170714 L139.631286,16.0170714 L139.631286,16.0875607 C139.592626,16.5605189 139.749418,17.0283354 140.063104,17.3759595 C140.376789,17.7235837 140.81826,17.9187603 141.278946,17.9134893 C141.876298,17.9873681 142.457779,17.6821102 142.750838,17.1407959 L143.926205,17.1408384 Z M139.631258,15.0867821 L142.756169,15.0867821 C142.787293,14.6542216 142.639656,14.2282348 142.349642,13.9137986 C142.059628,13.5993625 141.654208,13.4257196 141.23329,13.4356614 C140.80667,13.4301396 140.395965,13.6023464 140.094341,13.913218 C139.792717,14.2240896 139.625739,14.6472764 139.631286,15.0867821 L139.631258,15.0867821 Z" id="Download-on-the" fill="#FFFFFF" fill-rule="nonzero"></path>
                                    <path d="M33.880632,25.9539321 C33.9114746,23.6167626 35.1664958,21.4579289 37.2059968,20.233782 C35.9135227,18.4316477 33.8263212,17.3300189 31.574032,17.2612206 C29.2044401,17.0183932 26.9072239,18.6455402 25.6997232,18.6455402 C24.4688545,18.6455402 22.6097174,17.2853297 20.6077337,17.3255438 C17.9736451,17.4086286 15.5774904,18.8353212 14.2959527,21.0836363 C11.5668664,25.6966393 13.6025193,32.4762004 16.2167553,36.2050038 C17.5247129,38.0308928 19.0533399,40.0704578 21.0535174,39.9981304 C23.0108113,39.9188733 23.7418226,38.7796127 26.1044436,38.7796127 C28.445136,38.7796127 29.1309777,39.9981304 31.1717387,39.9521439 C33.2720062,39.9188595 34.5952744,38.1181404 35.8573427,36.2749616 C36.7971081,34.973949 37.5202561,33.5360467 38,32.0145171 C35.50552,30.9844796 33.8835434,28.5981605 33.880632,25.9539321 L33.880632,25.9539321 Z M30.0260023,14.808907 C31.1711554,13.466774 31.7353288,11.7416895 31.5987123,10 C29.849173,10.1794003 28.2330888,10.9957487 27.0724649,12.2863875 C25.9264021,13.5597763 25.3458093,15.2257096 25.4585646,16.9172588 C27.2315631,16.9350813 28.9149877,16.1580042 30.0260023,14.808907 L30.0260023,14.808907 Z" id="Icon" fill="#FFFFFF" fill-rule="nonzero"></path>
                                </g>
                            </g>
                        </g>
                    </g>
                </g>
            </g>
        </g>
    </g>
</svg>