<?xml version="1.0" encoding="UTF-8"?>
<svg width="152px" height="48px" viewBox="0 0 152 48" version="1.1" xmlns="http://www.w3.org/2000/svg" xmlns:xlink="http://www.w3.org/1999/xlink">
    <!-- Generator: Sketch 63.1 (92452) - https://sketch.com -->
    <title>img-logo</title>
    <desc>Created with Sketch.</desc>
    <defs>
        <polygon id="path-1" points="37.5333106 36.2031902 0.0176687117 36.2031902 0.0176687117 0.0297423313 37.5333106 0.0297423313"></polygon>
    </defs>
    <g id="Page-1" stroke="none" stroke-width="1" fill="none" fill-rule="evenodd">
        <g id="LD_v4" transform="translate(-145.000000, -33.000000)">
            <g id="UI/Logo" transform="translate(145.000000, 33.000000)">
                <g id="Projeto-Colmeia-Viva_Horiz">
                    <path d="M51.2009816,26.9182822 L53.2929571,29.6136442 C51.7442945,31.001227 50.3360982,31.5848834 48.3851779,31.5848834 C44.5233865,31.5848834 42.0491779,29.211092 42.0491779,24.8062822 C42.0491779,19.4759264 45.2875583,17.726135 48.3851779,17.726135 C50.5775706,17.726135 52.3877301,18.6717055 53.5344294,20.7027239 L50.6179141,22.7949939 C49.8334233,21.688638 49.0889816,21.1856687 48.2844663,21.1856687 C47.1781104,21.1856687 46.333546,22.2316564 46.333546,24.5648098 C46.333546,26.7371779 47.0173252,28.1854233 48.6263558,28.1854233 C49.5516074,28.1854233 50.4164908,27.6424049 51.2009816,26.9182822" id="Fill-1" fill="#EEA437"></path>
                    <path d="M59.1253988,26.1941595 C59.1253988,24.2832883 58.9242699,23.499092 58.2605153,23.499092 C57.6771534,23.499092 57.435681,24.363681 57.435681,25.8319509 C57.435681,27.4613006 57.5163681,28.7484663 58.2808344,28.7484663 C58.9042454,28.7484663 59.1253988,28.0850061 59.1253988,26.1941595 Z M58.4012761,20.6226258 C60.0709693,20.6226258 63.3090552,21.1253006 63.3090552,25.9123436 C63.3090552,29.6336687 60.9959264,31.6649816 58.1197546,31.6649816 C55.1428712,31.6649816 53.2720491,29.9355092 53.2720491,26.2745521 C53.2720491,22.0305276 56.1284908,20.6226258 58.4012761,20.6226258 L58.4012761,20.6226258 Z" id="Fill-2" fill="#EEA437"></path>
                    <polygon id="Fill-3" fill="#EEA437" points="64.5155337 31.3437055 68.598773 31.3437055 68.598773 16.0367117 64.5155337 16.0367117"></polygon>
                    <path d="M70.1874847,31.343411 L70.1874847,23.2172761 L69.9259877,20.9441963 L73.2647853,20.9441963 L73.4859387,21.8897669 C74.0896196,21.1253006 74.7733988,20.6226258 76.1409571,20.6226258 C77.2676319,20.6226258 78.1725644,20.9845399 78.7155828,21.7286871 C79.2989448,21.0852515 80.0433865,20.6226258 81.3305521,20.6226258 C83.2814724,20.6226258 84.4882454,21.688638 84.4882454,24.2026012 L84.4882454,31.343411 L80.4253252,31.343411 L80.4253252,24.8263067 C80.4253252,24.1222086 80.4053006,23.7202454 79.9626994,23.7202454 C79.419681,23.7202454 79.3593129,24.1222086 79.3593129,24.8463313 L79.3593129,31.343411 L75.2963926,31.343411 L75.2963926,24.8263067 C75.2963926,24.102184 75.2560491,23.7202454 74.8337669,23.7202454 C74.2907485,23.7202454 74.2303804,24.102184 74.2303804,24.8263067 L74.2303804,31.343411 L70.1874847,31.343411" id="Fill-4" fill="#EEA437"></path>
                    <path d="M90.7429693,23.4384294 C90.1799264,23.4384294 89.616589,23.9814479 89.5565153,25.3089571 C90.6425521,25.2082454 91.2662577,24.5648098 91.2662577,23.9814479 C91.2662577,23.6595828 91.0648344,23.4384294 90.7429693,23.4384294 Z M94.7257914,24.0217914 C94.7257914,26.777227 91.8293006,27.5016442 89.7573497,27.7024785 C89.9184294,28.3061595 90.4817669,28.6883926 91.3463558,28.6883926 C92.1711902,28.6883926 93.0563926,28.3462086 93.8002454,27.8635583 L94.8262086,30.5185767 C94.8665521,30.4982577 93.2171779,31.6649816 90.7229448,31.6649816 C87.0419632,31.6649816 85.6140368,29.5329571 85.6140368,26.475681 C85.6140368,23.5591656 87.3838528,20.6226258 90.9844417,20.6226258 C93.1768344,20.6226258 94.7257914,21.668319 94.7257914,24.0217914 L94.7257914,24.0217914 Z" id="Fill-5" fill="#EEA437"></path>
                    <path d="M95.8515828,31.343411 L99.9348221,31.343411 L99.9348221,20.9441963 L95.8515828,20.9441963 L95.8515828,31.343411 Z M97.8631656,16.0367117 C99.1303067,16.0367117 99.9548466,16.9216196 99.9548466,17.9676074 C99.9548466,19.0536442 99.1303067,19.878184 97.8831902,19.878184 C96.5957301,19.878184 95.8112393,19.0536442 95.8112393,17.9676074 C95.8112393,16.9216196 96.5957301,16.0367117 97.8631656,16.0367117 L97.8631656,16.0367117 Z" id="Fill-6" fill="#EEA437"></path>
                    <path d="M106.753178,23.499092 C106.572074,23.4384294 106.411288,23.4184049 106.250209,23.4184049 C105.344982,23.4184049 105.043436,24.8463313 105.043436,26.2545276 C105.043436,27.7227975 105.244564,28.7888098 106.04908,28.7888098 C106.471362,28.7888098 106.753178,28.4469202 106.753178,28.0850061 L106.753178,23.499092 Z M110.75573,29.0102577 L111.017227,31.343411 L107.618061,31.343411 L107.436957,30.4982577 L107.316221,30.4785276 C106.793227,31.2630184 106.008736,31.6853006 104.983067,31.6853006 C101.845104,31.6853006 101.040883,29.1910675 101.040883,26.5964172 C101.040883,23.0765153 102.95146,20.6226258 106.652466,20.6226258 C107.396613,20.6226258 109.025963,20.8034356 110.75573,21.4872147 L110.75573,29.0102577 L110.75573,29.0102577 Z" id="Fill-7" fill="#EEA437"></path>
                    <polyline id="Fill-8" fill="#3E2E1B" points="115.884368 31.343411 111.579975 17.9676074 115.763632 17.9676074 118.076761 26.5360491 118.157153 26.5360491 120.550969 17.9676074 124.573546 17.9676074 120.188761 31.343411 115.884368 31.343411"></polyline>
                    <path d="M125.438135,31.343411 L129.52108,31.343411 L129.52108,20.9441963 L125.438135,20.9441963 L125.438135,31.343411 Z M127.449423,16.0367117 C128.716564,16.0367117 129.541104,16.9216196 129.541104,17.9676074 C129.541104,19.0536442 128.716564,19.878184 127.469448,19.878184 C126.182282,19.878184 125.397791,19.0536442 125.397791,17.9676074 C125.397791,16.9216196 126.182282,16.0367117 127.449423,16.0367117 L127.449423,16.0367117 Z" id="Fill-9" fill="#3E2E1B"></path>
                    <path d="M139.758626,20.9441963 C140.161178,22.3323681 140.442699,24.2632638 140.442699,25.7115092 C140.442699,29.7140613 138.551853,31.6046135 135.132663,31.6046135 C132.316564,31.6046135 131.049423,30.3574969 131.049423,27.8835828 L131.049423,20.9441963 L135.132663,20.9441963 L135.132663,27.5419877 C135.132663,28.3061595 135.253104,28.5072883 135.594994,28.5072883 C136.339436,28.5072883 136.460172,27.1797791 136.460172,25.7518528 C136.460172,24.3436564 136.138307,22.3724172 135.776393,20.9441963 L139.758626,20.9441963" id="Fill-10" fill="#3E2E1B"></path>
                    <path d="M146.999558,23.499092 C146.818454,23.4384294 146.657669,23.4184049 146.496589,23.4184049 C145.591362,23.4184049 145.289816,24.8463313 145.289816,26.2545276 C145.289816,27.7227975 145.490945,28.7888098 146.29546,28.7888098 C146.717742,28.7888098 146.999558,28.4469202 146.999558,28.0850061 L146.999558,23.499092 Z M151.00211,29.0102577 L151.263607,31.343411 L147.864442,31.343411 L147.683337,30.4982577 L147.562601,30.4785276 C147.039607,31.2630184 146.255117,31.6853006 145.229448,31.6853006 C142.091485,31.6853006 141.287264,29.1910675 141.287264,26.5964172 C141.287264,23.0765153 143.19784,20.6226258 146.898847,20.6226258 C147.642994,20.6226258 149.272344,20.8034356 151.00211,21.4872147 L151.00211,29.0102577 L151.00211,29.0102577 Z" id="Fill-11" fill="#3E2E1B"></path>
                    <path d="M29.1030184,14.798135 C29.1030184,9.09231902 24.4764663,4.46488344 18.7706503,4.46488344 C13.0648344,4.46488344 8.43739877,9.09231902 8.43739877,14.798135 C8.43739877,22.9725644 18.7706503,35.0685644 18.7706503,35.0685644 C18.7706503,35.0685644 29.1030184,22.9283926 29.1030184,14.798135" id="Fill-12" fill="#3E2E1B"></path>
                    <path d="M14.2774969,25.0880982 L23.2552638,25.0880982 C23.8159509,24.1749202 24.3651534,23.2087362 24.8598773,22.2237055 L12.6734724,22.2237055 C13.1676074,23.2093252 13.7168098,24.1752147 14.2774969,25.0880982" id="Fill-13" fill="#EEA437"></path>
                    <path d="M18.7709448,31.337816 C18.7709448,31.337816 19.9170552,29.9911656 21.3470429,27.9713374 L16.1877791,27.9713374 C17.6210061,29.9917546 18.7709448,31.337816 18.7709448,31.337816" id="Fill-14" fill="#EEA437"></path>
                    <path d="M10.7331534,16.4746012 C10.8438773,17.3951411 11.0912393,18.3613252 11.4340123,19.3404663 L26.1025767,19.3404663 C26.4468221,18.3601472 26.6956564,17.3939632 26.8069693,16.4746012 L10.7331534,16.4746012" id="Fill-15" fill="#EEA437"></path>
                    <path d="M16.9690307,1.95828221 C16.9690307,2.92858896 16.1824785,3.71543558 15.2118773,3.71543558 C14.2415706,3.71543558 13.4550184,2.92858896 13.4550184,1.95828221 C13.4550184,0.987680982 14.2415706,0.201128834 15.2118773,0.201128834 C16.1824785,0.201128834 16.9690307,0.987680982 16.9690307,1.95828221" id="Fill-16" fill="#3E2E1B"></path>
                    <path d="M23.8854479,1.95828221 C23.8854479,2.92858896 23.0988957,3.71543558 22.1282945,3.71543558 C21.1579877,3.71543558 20.3714356,2.92858896 20.3714356,1.95828221 C20.3714356,0.987680982 21.1579877,0.201128834 22.1282945,0.201128834 C23.0988957,0.201128834 23.8854479,0.987680982 23.8854479,1.95828221" id="Fill-17" fill="#3E2E1B"></path>
                    <path d="M15.5031166,1.95828221 C15.5031166,1.95828221 16.4348466,2.86822086 16.9690307,5.82831902" id="Fill-18" fill="#3E2E1B"></path>
                    <path d="M16.3894969,5.9328589 C15.9065521,3.25722699 15.0926135,2.3808589 15.0843681,2.3726135 L15.9147975,1.53688344 C16.0237546,1.64348466 16.9967117,2.66679755 17.5485644,5.72348466 L16.3894969,5.9328589" id="Fill-19" fill="#3E2E1B"></path>
                    <polyline id="Fill-20" fill="#3E2E1B" points="16.9690307 1.95828221 17.2434847 4.8397546 16.9690307 4.8397546 15.997546 3.39916564 16.9690307 1.95828221"></polyline>
                    <path d="M21.9121472,2.16441718 C21.9121472,2.16441718 20.9807117,3.07465031 20.4462331,6.03445399" id="Fill-21" fill="#3E2E1B"></path>
                    <path d="M21.0260613,6.13899387 L19.8666994,5.92961963 C20.4185521,2.87322699 21.3915092,1.84991411 21.5004663,1.7430184 L22.3238282,2.58581595 L21.9121472,2.16441718 L22.3308957,2.57845399 C22.3226503,2.58728834 21.5090061,3.46365644 21.0260613,6.13899387" id="Fill-22" fill="#3E2E1B"></path>
                    <polyline id="Fill-23" fill="#3E2E1B" points="20.3732025 1.88495706 20.098454 4.76672393 20.3732025 4.76672393 21.3446871 3.32584049 20.3732025 1.88495706"></polyline>
                    <path d="M28.2775951,11.1174479 L27.3588221,9.84147239 C26.5013006,13.3495951 22.9557791,15.9872393 18.7229448,15.9872393 C14.647362,15.9872393 11.2096196,13.5418896 10.1939632,10.2290061 L8.60996319,13.0088834 C10.5555828,16.1745276 14.358773,18.3295215 18.7229448,18.3295215 C22.9336933,18.3295215 26.6208589,16.3220613 28.6224294,13.3369325 L28.2775951,11.1174479" id="Fill-24" fill="#3E2E1B"></path>
                    <path d="M26.3402209,11.9302086 C25.1764417,8.88265031 22.2266503,6.71676074 18.7706503,6.71676074 C15.3143558,6.71676074 12.3639755,8.88265031 11.1999018,11.9302086 L11.1999018,11.9305031 C12.3654479,14.2698405 15.3196564,15.9324663 18.7809571,15.9324663 C22.2422577,15.9324663 25.1967607,14.2698405 26.3626012,11.9302086 L26.3402209,11.9302086" id="Fill-25" fill="#FFFBF4"></path>
                    <path d="M25.0907485,13.4564908 C26.4002945,11.7485153 33.1300123,15.0828957 34.8379877,16.3924417 C36.5462577,17.7019877 36.8693006,20.1482209 35.5597546,21.8561963 C34.2502086,23.5644663 31.803681,23.8875092 30.0957055,22.5779632 C28.3877301,21.2684172 23.7812025,15.1641718 25.0907485,13.4564908" id="Fill-26" fill="#FFFFFE"></path>
                    <path d="M12.4426012,13.4564908 C11.1330552,11.7485153 4.40333742,15.0828957 2.69536196,16.3924417 C0.987092025,17.7019877 0.66404908,20.1482209 1.97359509,21.8561963 C3.2831411,23.5644663 5.72966871,23.8875092 7.43764417,22.5779632 C9.14561963,21.2684172 13.7518528,15.1641718 12.4426012,13.4564908" id="Fill-27" fill="#FFFFFE"></path>
                    <g id="Group-32" transform="translate(0.000000, 11.779141)">
                        <mask id="mask-2" fill="white">
                            <use xlink:href="#path-1"></use>
                        </mask>
                        <g id="Clip-29"></g>
                        <path d="M26.0310184,2.4123681 C25.9962699,2.73570552 26.2124172,3.86561963 27.6244417,6.03062577 C28.7652515,7.7801227 30.1392883,9.35646626 30.8083436,9.86915337 C31.288638,10.2372515 31.8611043,10.4319018 32.4639018,10.4319018 C33.3205399,10.4319018 34.1100368,10.0428957 34.6303804,9.36441718 C35.5447362,8.17148466 35.3182822,6.45732515 34.1253497,5.54296933 C32.8917791,4.59710429 28.478135,2.37231902 26.4106012,2.37231902 C26.2106503,2.37231902 26.0925644,2.39499387 26.0310184,2.4123681 Z M32.4639018,12.7744785 C31.3413497,12.7744785 30.2759264,12.4125644 29.3830675,11.7281963 C28.3500368,10.9363436 26.6685644,8.9088589 25.4712147,7.01241718 C23.6642945,4.15008589 23.2358282,2.17177914 24.1616687,0.964417178 C24.6369571,0.344245399 25.3937669,0.0297423313 26.4106012,0.0297423313 C29.2514356,0.0297423313 34.1671656,2.62321472 35.5506258,3.68392638 C37.768638,5.3842454 38.1894479,8.57168098 36.4894233,10.7896933 C35.5220613,12.0509448 34.0549693,12.7744785 32.4639018,12.7744785 L32.4639018,12.7744785 Z" id="Fill-28" fill="#3E2E1B" mask="url(#mask-2)"></path>
                        <path d="M11.1227485,2.37231902 C9.05492025,2.37231902 4.64157055,4.59710429 3.408,5.54296933 C2.21506748,6.45732515 1.9886135,8.17177914 2.90296933,9.36441718 C3.4230184,10.0428957 4.21280982,10.4319018 5.06944785,10.4319018 C5.67253988,10.4319018 6.24471166,10.2372515 6.72500613,9.86915337 C7.39406135,9.35646626 8.76780368,7.7801227 9.90890798,6.03062577 C11.3209325,3.86561963 11.5370798,2.73570552 11.5023313,2.4123681 C11.4407853,2.39499387 11.3229939,2.37231902 11.1227485,2.37231902 Z M5.06974233,12.7744785 L5.06944785,12.7744785 C3.47838037,12.7744785 2.01128834,12.0509448 1.04422086,10.7896933 C-0.656392638,8.57197546 -0.235288344,5.3842454 1.98272393,3.68392638 C3.36588957,2.62321472 8.28161963,0.0297423313 11.1227485,0.0297423313 C12.1395828,0.0297423313 12.8963926,0.344245399 13.3719755,0.964711656 C14.2975215,2.17177914 13.8690552,4.15008589 12.0618405,7.01241718 C10.8650798,8.9088589 9.18331288,10.9363436 8.15028221,11.7281963 C7.25742331,12.4125644 6.19229448,12.7744785 5.06974233,12.7744785 L5.06974233,12.7744785 Z" id="Fill-30" fill="#3E2E1B" mask="url(#mask-2)"></path>
                        <path d="M34.0211043,26.3755583 L29.6051043,18.2105521 L29.6051043,18.2102577 C29.4422577,17.9095951 29.0712147,17.6657669 28.5873865,17.5412025 L24.8772515,16.5853252 L24.7029202,16.8432883 C24.5533252,17.0641472 24.404908,17.2814724 24.2570798,17.4961472 L23.9031166,18.0108957 L27.0481472,18.8563436 C27.3226012,18.9299632 27.4648344,19.0474601 27.4872147,19.0886871 L30.6007362,25.8481472 C30.672589,26.0045153 30.6413742,26.0969816 30.4897178,26.1773742 L19.4341104,32.0628221 C19.0227239,32.2819141 18.5109202,32.2822086 18.0992393,32.0628221 L7.04333742,26.1776687 C6.89168098,26.0969816 6.86076074,26.0045153 6.9326135,25.8481472 L10.0452515,19.089865 C10.0682209,19.0477546 10.210454,18.9299632 10.484908,18.8563436 L13.6193374,18.0138405 L13.2650798,17.499092 C13.1172515,17.2841227 12.9682454,17.0667975 12.8189448,16.8459387 L12.644319,16.5882699 L8.94596319,17.540908 C8.46154601,17.6657669 8.09050307,17.9098896 7.9282454,18.2105521 L3.5122454,26.3755583 C3.18390184,26.9824785 3.33997546,27.6100123 3.90125153,27.936589 L17.588908,35.9037055 C17.952,36.1151411 18.3592638,36.2208589 18.7665276,36.2208589 C19.1740859,36.2208589 19.5810552,36.1151411 19.9444417,35.9037055 L33.6320982,27.936589 C34.1930798,27.6100123 34.3494479,26.982773 34.0211043,26.3755583" id="Fill-31" fill="#3E2E1B" mask="url(#mask-2)"></path>
                    </g>
                </g>
            </g>
        </g>
    </g>
</svg>