<?xml version="1.0" encoding="UTF-8"?>
<svg width="169px" height="52px" viewBox="0 0 169 52" version="1.1" xmlns="http://www.w3.org/2000/svg" xmlns:xlink="http://www.w3.org/1999/xlink">
    <!-- Generator: Sketch 63.1 (92452) - https://sketch.com -->
    <title>img-btn-google</title>
    <desc>Created with Sketch.</desc>
    <defs>
        <linearGradient x1="61.094818%" y1="4.9481245%" x2="26.3730165%" y2="71.9074222%" id="linearGradient-1">
            <stop stop-color="#00A0FF" offset="0%"></stop>
            <stop stop-color="#00A1FF" offset="1%"></stop>
            <stop stop-color="#00BEFF" offset="26%"></stop>
            <stop stop-color="#00D2FF" offset="51%"></stop>
            <stop stop-color="#00DFFF" offset="76%"></stop>
            <stop stop-color="#00E3FF" offset="100%"></stop>
        </linearGradient>
        <linearGradient x1="107.684729%" y1="50%" x2="-130.640394%" y2="50%" id="linearGradient-2">
            <stop stop-color="#FFE000" offset="0%"></stop>
            <stop stop-color="#FFBD00" offset="41%"></stop>
            <stop stop-color="#FFA500" offset="78%"></stop>
            <stop stop-color="#FF9C00" offset="100%"></stop>
        </linearGradient>
        <linearGradient x1="86.219293%" y1="31.0160231%" x2="-50.1497903%" y2="135.515738%" id="linearGradient-3">
            <stop stop-color="#FF3A44" offset="0%"></stop>
            <stop stop-color="#C31162" offset="100%"></stop>
        </linearGradient>
        <linearGradient x1="-18.7537448%" y1="-11.4922868%" x2="42.1210306%" y2="35.1765967%" id="linearGradient-4">
            <stop stop-color="#32A071" offset="0%"></stop>
            <stop stop-color="#2DA771" offset="7%"></stop>
            <stop stop-color="#15CF74" offset="48%"></stop>
            <stop stop-color="#06E775" offset="80%"></stop>
            <stop stop-color="#00F076" offset="100%"></stop>
        </linearGradient>
    </defs>
    <g id="Page-1" stroke="none" stroke-width="1" fill="none" fill-rule="evenodd">
        <g id="LD_v4" transform="translate(-1110.000000, -1600.000000)">
            <g id="Group-9" transform="translate(0.000000, 1395.000000)">
                <g id="Group-5" transform="translate(923.000000, 85.000000)">
                    <g id="Group-3" transform="translate(0.000000, 80.000000)">
                        <g id="Store-Buttons" transform="translate(0.000000, 40.000000)">
                            <g id="UI/Buttons/GooglePlay" transform="translate(187.000000, 0.000000)">
                                <g id="Google-Play-Badge-US" transform="translate(0.000000, 0.000000)">
                                    <rect id="Background-Black" fill="#000000" fill-rule="nonzero" x="0" y="0" width="169" height="52" rx="8"></rect>
                                    <path d="M85.6667888,30.8720891 C82.6859425,30.8857145 80.2795362,33.2415148 80.2888499,36.136905 C80.2982178,39.0322952 82.7197767,41.3734005 85.7006524,41.3688866 C88.6815281,41.3643596 91.0955494,39.0159212 91.0955824,36.1205168 C91.1165258,34.7181046 90.5504547,33.3675124 89.5270235,32.3780837 C88.5035924,31.3886549 87.1104873,30.8451624 85.6667888,30.8720891 L85.6667888,30.8720891 Z M85.6667888,39.3066212 C84.323229,39.3978886 83.0587722,38.6821367 82.4781943,37.5017018 C81.8976164,36.3212669 82.1189207,34.9160741 83.0362597,33.9582116 C83.9535988,33.0003491 85.3805221,32.6845038 86.634548,33.1617411 C87.8885738,33.6389784 88.7148198,34.8122991 88.7181013,36.1205168 C88.7594756,36.9388664 88.4587813,37.7387525 87.8842543,38.3386593 C87.3097273,38.938566 86.5100853,39.2876236 85.6667888,39.3066212 L85.6667888,39.3066212 Z M73.8302389,30.8720891 C70.8477074,30.8789056 68.4349177,33.2317166 68.4395867,36.1287303 C68.4442692,39.025744 70.8646418,41.3711952 73.8471807,41.3689301 C76.8297196,41.3666616 79.2463104,39.0175341 79.2463187,36.1205168 C79.2672621,34.7181046 78.701191,33.3675124 77.6777599,32.3780837 C76.6543287,31.3886549 75.2612236,30.8451624 73.8175251,30.8720891 L73.8302389,30.8720891 Z M73.8302389,39.3066212 C72.4859778,39.4030355 71.2178343,38.6908526 70.6331649,37.5111607 C70.0484955,36.3314689 70.2663348,34.9244453 71.1823524,33.9639606 C72.0983699,33.003476 73.5260708,32.6850783 74.7816812,33.161259 C76.0372916,33.6374396 76.8651779,34.8112516 76.8688377,36.1205168 C76.9102119,36.9388664 76.6095177,37.7387525 76.0349907,38.3386593 C75.4604637,38.938566 74.6608216,39.2876236 73.8175251,39.3066212 L73.8302389,39.3066212 Z M59.7306323,32.4898398 L59.7306323,34.7127033 L65.2229948,34.7127033 C65.1368759,35.7596767 64.6888176,36.7476045 63.9516146,37.5159811 C62.8404574,38.6153411 61.3027489,39.2074049 59.7179185,39.146081 C56.3475317,39.146081 53.6152934,36.492188 53.6152934,33.218445 C53.6152934,29.9447021 56.3475317,27.290809 59.7179185,27.290809 C61.2661999,27.266282 62.7613001,27.8391797 63.8753318,28.8838612 L65.4899847,27.3155075 C63.9705831,25.8210741 61.892892,24.9879893 59.7306323,25.0061993 C56.6525709,24.8898436 53.7556456,26.4185472 52.180991,28.9901352 C50.6063363,31.5617231 50.6063363,34.7640238 52.180991,37.3356117 C53.7556456,39.9071997 56.6525709,41.4359033 59.7306323,41.3195476 C61.9323641,41.4161857 64.0695234,40.5831329 65.5916951,39.0349379 C66.9236893,37.6134433 67.6348579,35.744805 67.5750483,33.8235579 C67.5791508,33.355507 67.5365727,32.8881705 67.4479102,32.4280936 L59.7306323,32.4898398 Z M117.33687,34.2187336 C116.658054,32.2789272 114.816903,30.947485 112.709046,30.8720797 C111.303362,30.8694196 109.959235,31.4320131 108.995827,32.4262826 C108.032419,33.4205522 107.535667,34.7578066 107.623525,36.1205168 C107.592301,37.5151119 108.146272,38.8620835 109.158148,39.8519317 C110.170023,40.8417799 111.5528,41.3893934 112.98875,41.3689445 C114.795201,41.3784028 116.485863,40.5062827 117.489436,39.0472871 L115.645934,37.8123629 C115.086204,38.7187259 114.076869,39.2722496 112.98875,39.2695735 C111.861787,39.3112955 110.823133,38.6795265 110.369707,37.6765213 L117.60386,34.7744495 L117.33687,34.2187336 Z M109.962865,35.9723259 C109.910804,35.2007012 110.180685,34.441199 110.711665,33.8650404 C111.242646,33.2888817 111.99003,32.9445656 112.785329,32.909714 C113.623639,32.8560585 114.414051,33.2933834 114.79411,34.0211457 L109.962865,35.9723259 Z M104.089088,41.0602135 L106.466569,41.0602135 L106.466569,25.6236614 L104.089088,25.6236614 L104.089088,41.0602135 Z M100.198665,32.0452671 L100.109668,32.0452671 C99.3849332,31.2582212 98.3488792,30.8089597 97.2617764,30.8103397 C94.3759301,30.9462731 92.1080296,33.2585549 92.1080296,36.0649452 C92.1080296,38.8713356 94.3759301,41.1836174 97.2617764,41.3195476 C98.3524032,41.3373598 99.3951727,40.8851863 100.109668,40.0846234 L100.185951,40.0846234 L100.185951,40.8379272 C100.185951,42.8508535 99.0798501,43.9252376 97.2999178,43.9252376 C96.0874063,43.8976709 95.0123591,43.1608608 94.5791642,42.0605021 L92.5068144,42.9002505 C93.3048364,44.7857463 95.2011626,46.0120845 97.2999178,46 C100.084241,46 102.385439,44.406858 102.385439,40.5291961 L102.385439,31.1808202 L100.198665,31.1808202 L100.198665,32.0452671 Z M97.4779111,39.3066212 C95.7779328,39.1610975 94.4741181,37.7781494 94.4741181,36.1205168 C94.4741181,34.4628843 95.7779328,33.0799362 97.4779111,32.9344125 C98.2993747,32.9753595 99.0690255,33.3367139 99.6123675,33.9365491 C100.155709,34.5363843 100.426716,35.3238881 100.363944,36.1205168 C100.434041,36.9208087 100.163902,37.7141014 99.6163348,38.3159498 C99.0687677,38.9177982 98.2914805,39.2757651 97.4651973,39.3066212 L97.4779111,39.3066212 Z M128.474161,25.6236614 L122.791091,25.6236614 L122.791091,41.0602135 L125.168572,41.0602135 L125.168572,35.2066729 L128.486875,35.2066729 C130.333788,35.3355543 132.100104,34.4515279 133.064009,32.9158552 C134.027914,31.3801826 134.027914,29.4501518 133.064009,27.9144791 C132.100104,26.3788065 130.333788,25.49478 128.486875,25.6236614 L128.474161,25.6236614 Z M128.474161,33.0332064 L125.155858,33.0332064 L125.155858,27.7724295 L128.525016,27.7724295 C130.031158,27.7724295 131.252127,28.9583879 131.252127,30.4213418 C131.252127,31.8842957 130.031158,33.0702541 128.525016,33.0702541 L128.474161,33.0332064 Z M143.133175,30.8103429 C141.36432,30.7076453 139.701321,31.634146 138.899479,33.1690481 L141.00997,34.0211457 C141.435127,33.2600227 142.28278,32.8144465 143.171316,32.8850155 C143.780979,32.8158531 144.393689,32.9874773 144.871823,33.3613383 C145.349957,33.7351994 145.65343,34.2799549 145.714077,34.8732434 L145.714077,35.0337836 C144.950476,34.6410765 144.098905,34.4374698 143.234885,34.44102 C140.959115,34.44102 138.657916,35.6759441 138.657916,37.9111569 C138.703289,38.8740381 139.147703,39.7781517 139.890051,40.4178027 C140.632398,41.0574537 141.60955,41.3782468 142.599195,41.3071983 C143.81874,41.3922637 144.988842,40.8239888 145.650508,39.8252893 L145.72679,39.8252893 L145.72679,41.0602135 L148.015275,41.0602135 L148.015275,35.1202283 C148.015275,32.4157443 145.904784,30.8473906 143.196744,30.8473906 L143.133175,30.8103429 Z M142.840757,39.2695735 C142.065215,39.2695735 140.984542,38.886747 140.984542,37.9605538 C140.984542,36.7256297 142.332205,36.3181047 143.527303,36.3181047 C144.282556,36.3000031 145.028969,36.4791232 145.688649,36.8367728 C145.524255,38.2191655 144.336566,39.2727108 142.904326,39.3066212 L142.840757,39.2695735 Z M156.355529,31.1808202 L153.634775,37.8741092 L153.558493,37.8741092 L150.736029,31.1808202 L148.193268,31.1808202 L152.426964,40.5415454 L150.011342,45.7405761 L152.490533,45.7405761 L159,31.1808202 L156.355529,31.1808202 Z M134.983628,41.0602135 L137.361109,41.0602135 L137.361109,25.6236614 L134.983628,25.6236614 L134.983628,41.0602135 Z" id="Google-Play" fill="#FFFFFF" fill-rule="nonzero"></path>
                                    <path d="M59.6596701,15.3148369 C59.7029817,16.2594093 59.3612073,17.1806166 58.7140999,17.8634954 C57.9909905,18.6227449 56.9824252,19.0351466 55.9404272,18.9976484 C54.3422122,18.9850055 52.9072248,18.0052214 52.298963,16.5113208 C51.6907012,15.0174201 52.0277025,13.3005332 53.154147,12.1545003 C53.88606,11.3992384 54.894726,10.9840485 55.9404272,11.007604 C56.4734233,11.005809 57.0011502,11.114225 57.4911624,11.3261863 C57.9473742,11.5121792 58.3535023,11.804769 58.6762771,12.1799869 L58.0080741,12.8553814 C57.4979034,12.2420167 56.7320395,11.9068852 55.9404272,11.9506076 C55.1446976,11.9466621 54.3817233,12.270576 53.8274384,12.8476579 C53.2731536,13.4247398 52.9754069,14.2051731 53.0028558,15.0089979 C52.985964,16.2236754 53.6937228,17.3293469 54.7968335,17.8115771 C55.8999443,18.2938072 57.1817624,18.0578888 58.0458969,17.2135875 C58.4338448,16.7886453 58.6575964,16.2368157 58.6762771,15.6589058 L55.9404272,15.6589058 L55.9404272,14.7413887 L59.6092397,14.7413887 C59.6428681,14.9306446 59.659745,15.1225529 59.6596701,15.3148369 L59.6596701,15.3148369 Z M65.4339522,12.1290137 L62.0298994,12.1290137 L62.0298994,14.5502393 L65.1313698,14.5502393 L65.1313698,15.4677564 L62.0298994,15.4677564 L62.0298994,17.888982 L65.4339522,17.888982 L65.4339522,18.8319856 L61.0212912,18.8319856 L61.0212912,11.1860101 L65.4339522,11.1860101 L65.4339522,12.1290137 Z M69.569246,18.8319856 L68.5984606,18.8319856 L68.5984606,12.1290137 L66.4803833,12.1290137 L66.4803833,11.1860101 L71.7377537,11.1860101 L71.7377537,12.1290137 L69.569246,12.1290137 L69.569246,18.8319856 Z M75.4443889,18.8319856 L75.4443889,11.1860101 L76.4151743,11.1860101 L76.4151743,18.8319856 L75.4443889,18.8319856 Z M80.7269745,18.8319856 L79.7561891,18.8319856 L79.7561891,12.1290137 L77.6381118,12.1290137 L77.6381118,11.1860101 L82.8324442,11.1860101 L82.8324442,12.1290137 L80.7269745,12.1290137 L80.7269745,18.8319856 Z M92.6789821,17.8380088 C91.144624,19.3802376 88.6659949,19.3802376 87.1316368,17.8380088 C85.6442787,16.2466696 85.6442787,13.7585828 87.1316368,12.1672436 C87.8653973,11.4201638 88.8638153,11 89.9053095,11 C90.9468036,11 91.9452216,11.4201638 92.6789821,12.1672436 C94.1726874,13.7560261 94.1726874,16.2492263 92.6789821,17.8380088 L92.6789821,17.8380088 Z M87.8502702,17.2008442 C88.9866236,18.3446376 90.8239953,18.3446376 91.9603487,17.2008442 C93.0763716,15.9573169 93.0763716,14.0606788 91.9603487,12.8171515 C90.8239953,11.6733581 88.9866236,11.6733581 87.8502702,12.8171515 C86.7342473,14.0606788 86.7342473,15.9573169 87.8502702,17.2008442 L87.8502702,17.2008442 Z M95.1626799,18.8319856 L95.1626799,11.1860101 L96.3477945,11.1860101 L100.029215,17.1371277 L100.029215,11.1860101 L101,11.1860101 L101,18.8319856 L99.9913918,18.8319856 L96.1460729,12.6005155 L96.1460729,18.8319856 L95.1626799,18.8319856 Z" id="GET-IT-ON" stroke="#FFFFFF" stroke-width="0.2" fill="#FFFFFF" fill-rule="nonzero"></path>
                                    <g id="Icon" transform="translate(12.000000, 9.000000)" fill-rule="nonzero">
                                        <path d="M0.923636364,0.685384615 C0.508809945,1.18179135 0.299431918,1.81727817 0.338181818,2.46230769 L0.338181818,30.5376923 C0.299431918,31.1827218 0.508809945,31.8182087 0.923636364,32.3146154 L1.01272727,32.4034615 L16.7818182,16.6903846 L16.7818182,16.3223077 L1.01272727,0.596538462 L0.923636364,0.685384615 Z" id="Shape" fill="url(#linearGradient-1)"></path>
                                        <path d="M22,21.9323077 L16.7818182,16.6903846 L16.7818182,16.3223077 L22,11.0676923 L22.1145455,11.1311538 L28.3636364,14.6723077 C30.1454545,15.675 30.1454545,17.325 28.3636364,18.3403846 L22.14,21.8688462 L22,21.9323077 Z" id="Shape" fill="url(#linearGradient-2)"></path>
                                        <path d="M22.1527273,21.8561538 L16.7818182,16.5 L0.923636364,32.3146154 C1.67291347,32.9714707 2.78490959,33.0034594 3.57090909,32.3907692 L22.1654545,21.8561538" id="Shape" fill="url(#linearGradient-3)"></path>
                                        <path d="M22.1527273,11.1438462 L3.55818182,0.609230769 C2.77218232,-0.00345942693 1.6601862,0.0285292609 0.910909091,0.685384615 L16.7818182,16.5 L22.1527273,11.1438462 Z" id="Shape" fill="url(#linearGradient-4)"></path>
                                        <path d="M22,21.7419231 L3.55818182,32.2130769 C2.80350359,32.7757732 1.7674055,32.7757732 1.01272727,32.2130769 L0.923636364,32.3019231 L1.01272727,32.3907692 C1.76598555,32.9577083 2.80492354,32.9577083 3.55818182,32.3907692 L22.1527273,21.8561538 L22,21.7419231 Z" id="Shape" fill="#000000" opacity="0.2"></path>
                                        <path d="M0.923636364,32.1369231 C0.508809945,31.6405163 0.299431918,31.0050295 0.338181818,30.36 L0.338181818,30.5503846 C0.299431918,31.1954141 0.508809945,31.830901 0.923636364,32.3273077 L1.01272727,32.2384615 L0.923636364,32.1369231 Z M28.3636364,18.15 L22,21.7419231 L22.1145455,21.8561538 L28.3636364,18.3276923 C29.085362,17.989586 29.570778,17.2925073 29.6363636,16.5 C29.4913103,17.2169097 29.0212621,17.8262935 28.3636364,18.15 Z" id="Shape" fill="#000000" opacity="0.12"></path>
                                        <path d="M3.55818182,0.786923077 L28.3636364,14.85 C29.0212621,15.1737065 29.4913103,15.7830903 29.6363636,16.5 C29.570778,15.7074927 29.085362,15.010414 28.3636364,14.6723077 L3.55818182,0.609230769 C1.77636364,-0.393461538 0.325454545,0.444230769 0.325454545,2.475 L0.325454545,2.66538462 C0.363636364,0.621923077 1.78909091,-0.215769231 3.55818182,0.786923077 L3.55818182,0.786923077 Z" id="Shape" fill="#FFFFFF" opacity="0.25"></path>
                                    </g>
                                </g>
                            </g>
                        </g>
                    </g>
                </g>
            </g>
        </g>
    </g>
</svg>